<svg width="140" height="141" viewBox="0 0 140 141" fill="none" xmlns="http://www.w3.org/2000/svg">
<g filter="url(#filter0_d_3_224)">
<rect x="25" y="7.73999" width="90" height="90" rx="5" fill="url(#paint0_linear_3_224)" shape-rendering="crispEdges"/>
<g clip-path="url(#clip0_3_224)">
<path d="M56.7285 29.74H51.543C49.3457 29.74 47.5 31.4978 47.5 33.6951V61.908L54.1797 75.0037L60.6836 61.908V33.6951C60.6836 31.4978 58.9258 29.74 56.7285 29.74ZM51.543 32.3767H56.7285C57.5195 32.3767 58.0469 32.9919 58.0469 33.6951V36.4197H50.1367V33.6951C50.1367 32.9919 50.752 32.3767 51.543 32.3767ZM50.1367 41.781V39.0564H58.0469V41.781H50.1367ZM55.3223 66.8298H53.0371L50.1367 61.2927V44.4177H52.8613V61.5564H55.498V44.4177H58.0469V61.2927L55.3223 66.8298ZM66.0449 29.74V74.74H84.5898V29.74H66.0449ZM81.9531 72.1033H68.6816V69.4666H73.9551V66.8298H68.6816V64.1931H71.3184V61.4685H68.6816V58.8318H73.9551V56.1951H68.6816V53.6462H71.3184V50.9216H68.6816V48.2849H73.9551V45.6482H68.6816V43.0115H71.3184V40.2869H68.6816V37.6501H73.9551V35.0134H68.6816V32.3767H81.9531V72.1033Z" fill="white"/>
</g>
</g>
<defs>
<filter id="filter0_d_3_224" x="0" y="0.73999" width="140" height="140" filterUnits="userSpaceOnUse" color-interpolation-filters="sRGB">
<feFlood flood-opacity="0" result="BackgroundImageFix"/>
<feColorMatrix in="SourceAlpha" type="matrix" values="0 0 0 0 0 0 0 0 0 0 0 0 0 0 0 0 0 0 127 0" result="hardAlpha"/>
<feOffset dy="18"/>
<feGaussianBlur stdDeviation="12.5"/>
<feComposite in2="hardAlpha" operator="out"/>
<feColorMatrix type="matrix" values="0 0 0 0 0 0 0 0 0 0.552941 0 0 0 0 0.92549 0 0 0 0.1 0"/>
<feBlend mode="normal" in2="BackgroundImageFix" result="effect1_dropShadow_3_224"/>
<feBlend mode="normal" in="SourceGraphic" in2="effect1_dropShadow_3_224" result="shape"/>
</filter>
<linearGradient id="paint0_linear_3_224" x1="56.7783" y1="147.005" x2="125.083" y2="137.961" gradientUnits="userSpaceOnUse">
<stop stop-color="#842C91"/>
<stop offset="0.95" stop-color="#3B55A5"/>
</linearGradient>
<clipPath id="clip0_3_224">
<rect width="45" height="45" fill="white" transform="matrix(1 0 0 -1 47.5 74.74)"/>
</clipPath>
</defs>
</svg>
